# xmcd
#
# Track frame offsets: 
#        167
#        22445
#        46000
#        61770
#        84950
#        113772
#        131637
#        161127
#        179290
#        201665
#
# Disc length: 2966 seconds
#
# Revision: 2
# Processed by: cddbd v1.5.2PL0 Copyright (c) Steve Scherf et al.
# Submitted via: ExactAudioCopy v0.99pb5
#
DISCID=880b940a
DTITLE=Fleetwood Mac - 'London Live '68'
DYEAR=1900
DGENRE=
TTITLE0=Got To Move
TTITLE1=I Held My Baby Last Night
TTITLE2=My Baby's Sweet
TTITLE3=My Baby's A Good 'Un
TTITLE4=Don't Know Which Way To Go
TTITLE5=Buzz Me
TTITLE6=The Dream
TTITLE7=The World Keeps On Turning
TTITLE8=How Blue Can You Get
TTITLE9=Bleeding Heart
EXTD=Recorded live in London - April, 1968\nPeter Green - lead guitar,
EXTD=vocals\nJohn McVie - bass guitar\nJeremy Spencer - lead guitar, 
EXTD=vocals\nMick Fleetwood - drums 
EXTT0=
EXTT1=
EXTT2=
EXTT3=
EXTT4=
EXTT5=
EXTT6=
EXTT7=
EXTT8=
EXTT9=
PLAYORDER=
